<?xml version="1.0" encoding="utf-8"?>
<!-- Generator: Adobe Illustrator 24.0.1, SVG Export Plug-In . SVG Version: 6.00 Build 0)  -->
<svg version="1.1" xmlns="http://www.w3.org/2000/svg" xmlns:xlink="http://www.w3.org/1999/xlink" x="0px" y="0px"
	 viewBox="0 0 500 500" style="enable-background:new 0 0 500 500;" xml:space="preserve">
<style type="text/css">
	.st0{fill:#EBEBEB;}
	.st1{fill:#F0F0F0;}
	.st2{fill:#E0E0E0;}
	.st3{fill:#F5F5F5;}
	.st4{fill:#E6E6E6;}
	.st5{fill:#FFFFFF;}
	.st6{display:none;}
	.st7{display:inline;}
	.st8{fill:#407BFF;}
	.st9{opacity:0.9;fill:#FFFFFF;}
	.st10{opacity:0.6;fill:#FFFFFF;enable-background:new    ;}
	.st11{opacity:0.2;}
	.st12{opacity:0.5;}
	.st13{opacity:0.6;}
	.st14{fill:#263238;}
	.st15{fill:none;stroke:#407BFF;stroke-width:0.9446;stroke-miterlimit:10;}
	.st16{opacity:0.2;enable-background:new    ;}
	.st17{opacity:0.2;fill:#FFFFFF;enable-background:new    ;}
	.st18{opacity:0.7;fill:#FFFFFF;}
	.st19{enable-background:new    ;}
	.st20{fill:#E4897B;}
	.st21{opacity:0.4;fill:#FFFFFF;}
	.st22{fill:#DE5753;}
</style>
<g id="Background_Complete">
	<g>
		<rect y="382.4" class="st0" width="500" height="0.3"/>
		<rect x="416.8" y="398.5" class="st0" width="33.1" height="0.3"/>
		<rect x="322.5" y="401.2" class="st0" width="8.7" height="0.3"/>
		<rect x="396.6" y="389.2" class="st0" width="19.2" height="0.3"/>
		<rect x="52.5" y="390.9" class="st0" width="43.2" height="0.3"/>
		<rect x="104.6" y="390.9" class="st0" width="6.3" height="0.3"/>
		<rect x="131.5" y="395.1" class="st0" width="93.7" height="0.3"/>
		<path class="st0" d="M237,337.8H43.9c-3.1,0-5.7-2.6-5.7-5.7V60.7c0-3.1,2.6-5.7,5.7-5.7H237c3.1,0,5.7,2.6,5.7,5.7v271.4
			C242.7,335.2,240.2,337.8,237,337.8z M43.9,55.2c-3,0-5.5,2.4-5.5,5.5v271.4c0,3,2.4,5.5,5.5,5.5H237c3,0,5.5-2.4,5.5-5.5V60.7
			c0-3-2.4-5.5-5.5-5.5H43.9z"/>
		<path class="st0" d="M453.3,337.8H260.2c-3.1,0-5.7-2.6-5.7-5.7V60.7c0-3.1,2.6-5.7,5.7-5.7h193.1c3.1,0,5.7,2.6,5.7,5.7v271.4
			C459,335.2,456.5,337.8,453.3,337.8z M260.2,55.2c-3,0-5.5,2.4-5.5,5.5v271.4c0,3,2.4,5.5,5.5,5.5h193.1c3,0,5.5-2.4,5.5-5.5V60.7
			c0-3-2.4-5.5-5.5-5.5H260.2z"/>
	</g>
	<g>
		<g>
			<rect x="100.4" y="173.9" class="st1" width="142" height="208.2"/>
			<g>
				<rect x="105.4" y="180.4" class="st2" width="131.9" height="38.4"/>
				<rect x="105.4" y="186.7" class="st0" width="7.5" height="32.2"/>
				<rect x="141.6" y="186.7" class="st0" width="7.5" height="32.2"/>
				
					<rect x="185.6" y="186.3" transform="matrix(0.9855 -0.1698 0.1698 0.9855 -31.6201 35.0923)" class="st0" width="7.5" height="32.2"/>
				<rect x="114.7" y="190.9" class="st0" width="7.5" height="28"/>
				<rect x="131.9" y="190.9" class="st0" width="7.5" height="28"/>
				<rect x="175.4" y="190.9" class="st0" width="7.5" height="28"/>
				
					<rect x="154.6" y="190.4" transform="matrix(0.9762 -0.2169 0.2169 0.9762 -40.5694 39.2118)" class="st0" width="7.5" height="28"/>
				<rect x="124.9" y="185.1" class="st0" width="3.7" height="33.8"/>
				<rect x="169.5" y="185.1" class="st0" width="3.7" height="33.8"/>
			</g>
			<g>
				
					<rect x="105.4" y="225" transform="matrix(-1 -1.224647e-16 1.224647e-16 -1 342.6952 488.3752)" class="st2" width="131.9" height="38.4"/>
				
					<rect x="229.8" y="231.2" transform="matrix(-1 -1.224647e-16 1.224647e-16 -1 467.1472 494.5993)" class="st0" width="7.5" height="32.2"/>
				
					<rect x="193.6" y="231.2" transform="matrix(-1 -1.224647e-16 1.224647e-16 -1 394.6603 494.5993)" class="st0" width="7.5" height="32.2"/>
				
					<rect x="149.6" y="230.8" transform="matrix(-0.9855 -0.1698 0.1698 -0.9855 262.6272 516.2596)" class="st0" width="7.5" height="32.2"/>
				
					<rect x="220.5" y="235.4" transform="matrix(-1 -1.224647e-16 1.224647e-16 -1 448.5722 498.8456)" class="st0" width="7.5" height="28"/>
				
					<rect x="203.3" y="235.4" transform="matrix(-1 -1.224647e-16 1.224647e-16 -1 414.1154 498.8456)" class="st0" width="7.5" height="28"/>
				
					<rect x="159.8" y="235.4" transform="matrix(-1 -1.224647e-16 1.224647e-16 -1 327.1429 498.8456)" class="st0" width="7.5" height="28"/>
				
					<rect x="180.6" y="235" transform="matrix(-0.9762 -0.2169 0.2169 -0.9762 310.3411 531.9466)" class="st0" width="7.5" height="28"/>
				
					<rect x="214.1" y="229.6" transform="matrix(-1 -1.224647e-16 1.224647e-16 -1 431.8616 492.9995)" class="st0" width="3.7" height="33.8"/>
				
					<rect x="169.5" y="229.6" transform="matrix(-1 -1.224647e-16 1.224647e-16 -1 342.6953 492.9995)" class="st0" width="3.7" height="33.8"/>
				<rect x="105.4" y="231.2" class="st0" width="7.5" height="32.2"/>
				<rect x="114.7" y="235.4" class="st0" width="7.5" height="28"/>
				<rect x="131.9" y="235.4" class="st0" width="7.5" height="28"/>
				<rect x="124.9" y="229.6" class="st0" width="3.7" height="33.8"/>
			</g>
			<g>
				<rect x="105.4" y="269.5" class="st2" width="131.9" height="38.4"/>
				<g>
					<rect x="181.1" y="275.7" class="st0" width="7.5" height="32.2"/>
					
						<rect x="225" y="275.3" transform="matrix(0.9855 -0.1698 0.1698 0.9855 -46.1743 43.0936)" class="st0" width="7.5" height="32.2"/>
					<rect x="154.2" y="280" class="st0" width="7.5" height="28"/>
					<rect x="171.4" y="280" class="st0" width="7.5" height="28"/>
					<rect x="214.9" y="280" class="st0" width="7.5" height="28"/>
					
						<rect x="194.1" y="279.5" transform="matrix(0.9762 -0.2169 0.2169 0.9762 -58.9471 49.8958)" class="st0" width="7.5" height="28"/>
					<rect x="164.4" y="274.1" class="st0" width="3.7" height="33.8"/>
					<rect x="209" y="274.1" class="st0" width="3.7" height="33.8"/>
					
						<rect x="138.8" y="275.3" transform="matrix(0.9855 -0.1698 0.1698 0.9855 -47.4278 28.4477)" class="st0" width="7.5" height="32.2"/>
					<rect x="128.6" y="280" class="st0" width="7.5" height="28"/>
					
						<rect x="107.8" y="279.5" transform="matrix(0.9762 -0.2169 0.2169 0.9762 -61.0001 31.1914)" class="st0" width="7.5" height="28"/>
					<rect x="122.7" y="274.1" class="st0" width="3.7" height="33.8"/>
				</g>
			</g>
			
				<rect x="75.9" y="173.9" transform="matrix(-1 -1.224647e-16 1.224647e-16 -1 176.2151 556.469)" class="st2" width="24.5" height="208.7"/>
		</g>
		<g>
			<path class="st3" d="M325.4,377.1h-20.8l10.9-89.1c0.5-3.8,3.9-6.8,7.7-6.8h7.2H414l-13.3,95.9H325.4z"/>
			<path class="st1" d="M391.4,377.1h20.8l10.9-89.1c0.5-3.8-2.2-6.8-6-6.8h-7.2c-3.8,0-7.2,3.1-7.7,6.8L391.4,377.1z"/>
			<g>
				<path class="st4" d="M383.8,377l3.8-43.1c0.2-1.9,1.7-3.5,3.6-3.7l1.6-0.2c2.6-0.3,4.6-2.4,4.8-5l0.7-7.9c0.3-3.2-2.3-6-5.5-6
					h34.8c3.2,0,5.8,2.8,5.5,6l-0.7,7.9c-0.2,2.6-2.2,4.7-4.8,5l-1.6,0.2c-1.9,0.2-3.4,1.8-3.6,3.7l-3.8,43.1
					c-0.3,3.1-2.9,5.6-6.1,5.6h-34.8C380.9,382.6,383.5,380.2,383.8,377z"/>
			</g>
			<path class="st4" d="M288.1,323.2c-0.6-6.8-6.3-12-13.1-12h16.8h13.5c6.8,0,12.5,5.2,13.1,12l3,34.2H291L288.1,323.2z"/>
			<path class="st1" d="M261.6,311.2H275c6.8,0,12.5,5.2,13.1,12l3,34.2h72.1l3-34.2c0.6-6.8,6.3-12,13.1-12h13.5
				c3.2,0,5.8,2.8,5.5,6l-0.7,7.9c-0.2,2.6-2.2,4.7-4.8,5l-1.6,0.2c-1.9,0.2-3.4,1.8-3.6,3.7l-3.8,43.1c-0.3,3.1-2.9,5.6-6.1,5.6
				H276.5c-3.2,0-5.8-2.4-6.1-5.6l-3.8-43.1c-0.2-1.9-1.7-3.5-3.6-3.7l-1.6-0.2c-2.6-0.3-4.6-2.4-4.8-5l-0.7-7.9
				C255.8,314,258.3,311.2,261.6,311.2z"/>
		</g>
		<g>
			<path class="st4" d="M102.2,163.5c0,0-1.1-7.3,4.2-12c5.3-4.7,4.9-7.5,3.3-7.8c-1.5-0.4-2.9,4.3-5.3,5.6c0,0-0.1-6.7,2.3-9.1
				c2.4-2.5,3.6-8.8,1.4-8.9c-2.3-0.1-2.5,3.8-3,6.5c-0.5,2.7-3,6.6-3,6.6s-0.5-6-2-8.4c-1.5-2.5,2.6-8.1,1-10.5
				c-1.6-2.5-4.4,2.2-4.2,7.5c0.2,5.3,3.7,10.9,2.9,16.4c0,0-1.5-3.9-2.9-4.2c-1.4-0.4-2.8-2.9-3.7-3.9c-0.9-0.9-2.1,2.3,0,5.4
				c2.1,3,7.5,11.2,6.7,17.8L102.2,163.5z"/>
			<path class="st4" d="M105.3,160.2l1.7,10.9c0.5,3.4-2.1,6.4-5.5,6.4h-1.9c-3.4,0-6-3.1-5.5-6.4l1.7-10.9H105.3z"/>
			
				<rect x="210.1" y="152" transform="matrix(-1 -1.224647e-16 1.224647e-16 -1 425.5436 327.4352)" class="st0" width="5.4" height="23.4"/>
			
				<rect x="183.8" y="152" transform="matrix(-1 -1.224647e-16 1.224647e-16 -1 373.013 327.4352)" class="st0" width="5.4" height="23.4"/>
			
				<rect x="152" y="151.8" transform="matrix(-0.9855 -0.1698 0.1698 -0.9855 279.3288 350.7467)" class="st0" width="5.4" height="23.4"/>
			
				<rect x="203.3" y="155.1" transform="matrix(-1 -1.224647e-16 1.224647e-16 -1 412.0824 330.5125)" class="st0" width="5.4" height="20.3"/>
			
				<rect x="190.8" y="155.1" transform="matrix(-1 -1.224647e-16 1.224647e-16 -1 387.1118 330.5125)" class="st0" width="5.4" height="20.3"/>
			
				<rect x="159.3" y="155.1" transform="matrix(-1 -1.224647e-16 1.224647e-16 -1 324.0838 330.5125)" class="st0" width="5.4" height="20.3"/>
			
				<rect x="174.4" y="154.8" transform="matrix(-0.9762 -0.2169 0.2169 -0.9762 314.2313 364.3063)" class="st0" width="5.4" height="20.3"/>
			
				<rect x="198.6" y="150.9" transform="matrix(-1 -1.224647e-16 1.224647e-16 -1 399.9725 326.2759)" class="st0" width="2.7" height="24.5"/>
			
				<rect x="166.3" y="150.9" transform="matrix(-1 -1.224647e-16 1.224647e-16 -1 335.3545 326.2759)" class="st0" width="2.7" height="24.5"/>
			<g>
				<rect x="120.5" y="156.9" class="st0" width="26.5" height="18.3"/>
			</g>
			<g>
				<rect x="215.6" y="164.3" class="st0" width="22.2" height="13.6"/>
			</g>
			<g>
				<rect x="221.5" y="152.4" class="st0" width="11.1" height="13.6"/>
			</g>
		</g>
		<g>
			<rect x="391.4" y="134.3" class="st2" width="26.4" height="109.9"/>
			
				<rect x="316.4" y="134.3" transform="matrix(-1 -1.224647e-16 1.224647e-16 -1 731.3485 378.7801)" class="st2" width="98.6" height="110.2"/>
			
				<rect x="313.2" y="134.3" transform="matrix(-1 -1.224647e-16 1.224647e-16 -1 728.6906 378.7801)" class="st1" width="102.3" height="110.2"/>
			
				<rect x="317.6" y="137.8" transform="matrix(-1 -1.224647e-16 1.224647e-16 -1 728.8553 377.2321)" class="st5" width="93.7" height="101.6"/>
			
				<rect x="317.6" y="137.8" transform="matrix(-1 -1.224647e-16 1.224647e-16 -1 636.8504 377.2321)" class="st2" width="1.7" height="101.6"/>
			
				<rect x="363.9" y="166" transform="matrix(6.123234e-17 -1 1 6.123234e-17 153.0254 577.519)" class="st2" width="2.7" height="92.5"/>
			
				<rect x="317.6" y="206.3" transform="matrix(-1 -1.224647e-16 1.224647e-16 -1 730.3249 417.1543)" class="st1" width="95.2" height="4.6"/>
		</g>
	</g>
</g>
<g id="Background_Simple" class="st6">
	<g class="st7">
		<path class="st8" d="M89.4,124.2c27.9-59.4,127.1-51.1,165.3-9.3c38.3,41.8,50.7,68.6,85.2,53c34.5-15.6,78.5-11.4,81,38.2
			S383,314.4,318.8,331.7c-64.2,17.4-64.2,78.8-149.1,66.4c-46.3-6.8-47.4-56.9-40.8-98.3C135.5,258.3,57,193.1,89.4,124.2z"/>
		<path class="st9" d="M89.4,124.2c27.9-59.4,127.1-51.1,165.3-9.3c38.3,41.8,50.7,68.6,85.2,53c34.5-15.6,78.5-11.4,81,38.2
			S383,314.4,318.8,331.7c-64.2,17.4-64.2,78.8-149.1,66.4c-46.3-6.8-47.4-56.9-40.8-98.3C135.5,258.3,57,193.1,89.4,124.2z"/>
	</g>
</g>
<g id="Shadow_1_">
	<ellipse id="_x3C_Path_x3E__359_" class="st3" cx="250" cy="416.2" rx="193.9" ry="11.3"/>
</g>
<g id="Interface">
	<g>
		<path class="st8" d="M322,378.1H143c-4,0-7.3-3.3-7.3-7.3V160.1c0-4,3.3-7.3,7.3-7.3H322c4,0,7.3,3.3,7.3,7.3v210.7
			C329.3,374.9,326,378.1,322,378.1z"/>
		<path class="st10" d="M322,378.1H143c-4,0-7.3-3.3-7.3-7.3V160.1c0-4,3.3-7.3,7.3-7.3H322c4,0,7.3,3.3,7.3,7.3v210.7
			C329.3,374.9,326,378.1,322,378.1z"/>
		<g>
			<rect x="167.1" y="256.1" class="st5" width="130.8" height="22.4"/>
		</g>
		<g>
			<rect x="167.1" y="286.8" class="st5" width="130.8" height="22.4"/>
		</g>
		<rect x="167.1" y="332" class="st11" width="130.8" height="22.4"/>
		<g class="st12">
			<path d="M198.9,321.7h-2.1l-0.5,1h-0.4l1.8-3.8h0.4l1.8,3.8h-0.4L198.9,321.7z M198.7,321.4l-0.9-2.1l-0.9,2.1H198.7z"/>
			<path d="M200.3,318.7h0.4v4.1h-0.4V318.7z"/>
			<path d="M203.3,319.8v0.4c0,0-0.1,0-0.1,0c-0.6,0-1,0.4-1,1.1v1.5h-0.4v-2.9h0.4v0.6C202.4,320,202.7,319.8,203.3,319.8z"/>
			<path d="M206.5,321.4H204c0,0.6,0.5,1,1.1,1c0.4,0,0.7-0.1,0.9-0.4l0.2,0.3c-0.3,0.3-0.7,0.5-1.1,0.5c-0.9,0-1.5-0.6-1.5-1.5
				c0-0.9,0.6-1.5,1.4-1.5c0.8,0,1.4,0.6,1.4,1.5C206.5,321.3,206.5,321.4,206.5,321.4z M204,321.1h2c0-0.6-0.5-1-1-1
				C204.5,320.2,204.1,320.6,204,321.1z"/>
			<path d="M209.3,320.9v1.8H209v-0.4c-0.2,0.3-0.5,0.5-1,0.5c-0.7,0-1.1-0.3-1.1-0.8c0-0.4,0.3-0.8,1.1-0.8h0.9v-0.2
				c0-0.5-0.3-0.8-0.8-0.8c-0.4,0-0.7,0.1-1,0.3l-0.2-0.3c0.3-0.2,0.7-0.4,1.2-0.4C208.9,319.8,209.3,320.2,209.3,320.9z M209,321.9
				v-0.5h-0.9c-0.6,0-0.7,0.2-0.7,0.5c0,0.3,0.3,0.5,0.7,0.5C208.5,322.5,208.8,322.2,209,321.9z"/>
			<path d="M213,318.7v4.1h-0.4v-0.6c-0.2,0.4-0.6,0.6-1.1,0.6c-0.8,0-1.4-0.6-1.4-1.5c0-0.9,0.6-1.5,1.4-1.5c0.5,0,0.9,0.2,1.1,0.6
				v-1.7H213z M212.7,321.3c0-0.7-0.5-1.1-1.1-1.1c-0.6,0-1.1,0.4-1.1,1.1c0,0.7,0.5,1.1,1.1,1.1C212.2,322.4,212.7,322,212.7,321.3
				z"/>
			<path d="M216.6,319.8l-1.4,3.2c-0.2,0.6-0.5,0.7-1,0.7c-0.3,0-0.5-0.1-0.7-0.3l0.2-0.3c0.1,0.1,0.3,0.2,0.5,0.2
				c0.3,0,0.4-0.1,0.6-0.5l0.1-0.3l-1.3-2.9h0.4l1.1,2.4l1.1-2.4H216.6z"/>
			<path d="M220.7,320.9v1.8h-0.4v-0.4c-0.2,0.3-0.5,0.5-1,0.5c-0.7,0-1.1-0.3-1.1-0.8c0-0.4,0.3-0.8,1.1-0.8h0.9v-0.2
				c0-0.5-0.3-0.8-0.8-0.8c-0.4,0-0.7,0.1-1,0.3l-0.2-0.3c0.3-0.2,0.7-0.4,1.2-0.4C220.3,319.8,220.7,320.2,220.7,320.9z
				 M220.3,321.9v-0.5h-0.9c-0.6,0-0.7,0.2-0.7,0.5c0,0.3,0.3,0.5,0.7,0.5C219.8,322.5,220.2,322.2,220.3,321.9z"/>
			<path d="M228,321.1v1.7h-0.4v-1.6c0-0.6-0.3-0.9-0.8-0.9c-0.6,0-1,0.4-1,1v1.5h-0.4v-1.6c0-0.6-0.3-0.9-0.8-0.9c-0.6,0-1,0.4-1,1
				v1.5h-0.4v-2.9h0.4v0.5c0.2-0.3,0.6-0.5,1.1-0.5c0.5,0,0.8,0.2,1,0.6c0.2-0.4,0.6-0.6,1.1-0.6C227.5,319.8,228,320.2,228,321.1z"
				/>
			<path d="M231.5,321.4h-2.4c0,0.6,0.5,1,1.1,1c0.4,0,0.7-0.1,0.9-0.4l0.2,0.3c-0.3,0.3-0.7,0.5-1.1,0.5c-0.9,0-1.5-0.6-1.5-1.5
				c0-0.9,0.6-1.5,1.4-1.5c0.8,0,1.4,0.6,1.4,1.5C231.6,321.3,231.5,321.4,231.5,321.4z M229.1,321.1h2c0-0.6-0.5-1-1-1
				C229.6,320.2,229.2,320.6,229.1,321.1z"/>
			<path d="M237.1,321.1v1.7h-0.4v-1.6c0-0.6-0.3-0.9-0.8-0.9c-0.6,0-1,0.4-1,1v1.5h-0.4v-1.6c0-0.6-0.3-0.9-0.8-0.9
				c-0.6,0-1,0.4-1,1v1.5h-0.4v-2.9h0.4v0.5c0.2-0.3,0.6-0.5,1.1-0.5c0.5,0,0.8,0.2,1,0.6c0.2-0.4,0.6-0.6,1.1-0.6
				C236.6,319.8,237.1,320.2,237.1,321.1z"/>
			<path d="M241.1,321.3c0,0.9-0.6,1.5-1.4,1.5c-0.5,0-0.9-0.2-1.1-0.6v0.6h-0.4v-4.1h0.4v1.7c0.2-0.4,0.6-0.6,1.1-0.6
				C240.5,319.8,241.1,320.4,241.1,321.3z M240.7,321.3c0-0.7-0.5-1.1-1.1-1.1c-0.6,0-1.1,0.4-1.1,1.1c0,0.7,0.5,1.1,1.1,1.1
				C240.2,322.4,240.7,322,240.7,321.3z"/>
			<path d="M244.4,321.4H242c0,0.6,0.5,1,1.1,1c0.4,0,0.7-0.1,0.9-0.4l0.2,0.3c-0.3,0.3-0.7,0.5-1.1,0.5c-0.9,0-1.5-0.6-1.5-1.5
				c0-0.9,0.6-1.5,1.4-1.5c0.8,0,1.4,0.6,1.4,1.5C244.4,321.3,244.4,321.4,244.4,321.4z M242,321.1h2c0-0.6-0.5-1-1-1
				C242.4,320.2,242,320.6,242,321.1z"/>
			<path d="M246.6,319.8v0.4c0,0-0.1,0-0.1,0c-0.6,0-1,0.4-1,1.1v1.5h-0.4v-2.9h0.4v0.6C245.7,320,246.1,319.8,246.6,319.8z"/>
			<path d="M249.2,319.9c0-0.4-0.3-0.7-0.9-0.7c-0.5,0-0.8,0.2-1,0.4l-0.3-0.2c0.3-0.4,0.8-0.6,1.4-0.6c0.8,0,1.3,0.4,1.3,1
				c0,0.9-1,1-1,1.8h-0.4C248.2,320.7,249.2,320.6,249.2,319.9z M248.1,322.5c0-0.2,0.1-0.3,0.3-0.3c0.2,0,0.3,0.1,0.3,0.3
				c0,0.2-0.1,0.3-0.3,0.3C248.2,322.8,248.1,322.6,248.1,322.5z"/>
			<path d="M251.9,318.9h0.9v3.1h1.9v0.7h-2.8V318.9z"/>
			<path d="M254.9,321.3c0-0.9,0.7-1.5,1.6-1.5c0.9,0,1.6,0.6,1.6,1.5c0,0.9-0.7,1.5-1.6,1.5C255.6,322.8,254.9,322.1,254.9,321.3z
				 M257.3,321.3c0-0.5-0.3-0.8-0.8-0.8c-0.4,0-0.8,0.3-0.8,0.8c0,0.5,0.3,0.8,0.8,0.8C256.9,322.1,257.3,321.8,257.3,321.3z"/>
			<path d="M261.7,319.8v2.5c0,1.1-0.6,1.6-1.7,1.6c-0.6,0-1.1-0.1-1.4-0.4l0.3-0.6c0.3,0.2,0.7,0.3,1,0.3c0.6,0,0.9-0.3,0.9-0.8
				v-0.1c-0.2,0.2-0.5,0.4-0.9,0.4c-0.8,0-1.5-0.6-1.5-1.4c0-0.9,0.7-1.4,1.5-1.4c0.4,0,0.8,0.1,1,0.4v-0.4H261.7z M260.9,321.2
				c0-0.4-0.3-0.7-0.8-0.7c-0.4,0-0.8,0.3-0.8,0.7c0,0.4,0.3,0.7,0.8,0.7C260.6,321.9,260.9,321.6,260.9,321.2z"/>
			<path d="M264,318.9c0-0.3,0.2-0.5,0.5-0.5c0.3,0,0.5,0.2,0.5,0.5c0,0.3-0.2,0.5-0.5,0.5C264.2,319.4,264,319.2,264,318.9z
				 M264.1,319.8h0.9v2.9h-0.9V319.8z"/>
			<path d="M268.7,321v1.7h-0.9v-1.6c0-0.5-0.2-0.7-0.6-0.7c-0.4,0-0.7,0.3-0.7,0.8v1.5h-0.9v-2.9h0.8v0.3c0.2-0.3,0.6-0.4,1-0.4
				C268.2,319.7,268.7,320.1,268.7,321z"/>
		</g>
		<rect x="167.1" y="330.6" class="st8" width="130.8" height="22.4"/>
		<g>
			<path class="st5" d="M215.6,345.3l-1.7-2.4c-0.2,0-0.3,0-0.5,0h-1.9v2.3h-1.1v-7.7h3c2,0,3.2,1,3.2,2.7c0,1.2-0.6,2-1.7,2.4
				l1.8,2.6H215.6z M215.6,340.3c0-1.1-0.7-1.7-2.1-1.7h-1.9v3.5h1.9C214.8,342,215.6,341.4,215.6,340.3z"/>
			<path class="st5" d="M223.5,342.8h-4.7c0.1,1,1,1.7,2.1,1.7c0.7,0,1.2-0.2,1.7-0.7l0.6,0.7c-0.5,0.6-1.3,0.9-2.3,0.9
				c-1.9,0-3.1-1.2-3.1-3c0-1.7,1.2-3,2.9-3c1.7,0,2.9,1.2,2.9,3C223.5,342.5,223.5,342.7,223.5,342.8z M218.8,342h3.7
				c-0.1-1-0.8-1.7-1.9-1.7C219.7,340.3,218.9,341,218.8,342z"/>
			<path class="st5" d="M230.6,339.5v5c0,2-1,3-3,3c-1.1,0-2.1-0.3-2.8-0.9l0.5-0.8c0.5,0.5,1.4,0.8,2.2,0.8c1.4,0,2-0.6,2-2v-0.5
				c-0.5,0.6-1.3,0.9-2.1,0.9c-1.7,0-2.9-1.1-2.9-2.8c0-1.7,1.3-2.8,2.9-2.8c0.9,0,1.7,0.3,2.1,1v-0.9H230.6z M229.5,342.3
				c0-1.1-0.8-1.9-2-1.9c-1.2,0-2,0.8-2,1.9c0,1.1,0.8,1.9,2,1.9C228.7,344.2,229.5,343.4,229.5,342.3z"/>
			<path class="st5" d="M232.4,337.7c0-0.4,0.3-0.7,0.7-0.7c0.4,0,0.7,0.3,0.7,0.7c0,0.4-0.3,0.7-0.7,0.7
				C232.7,338.4,232.4,338.1,232.4,337.7z M232.6,339.5h1.1v5.8h-1.1V339.5z"/>
			<path class="st5" d="M234.9,344.7l0.4-0.8c0.5,0.4,1.3,0.6,2,0.6c1,0,1.4-0.3,1.4-0.8c0-1.3-3.7-0.2-3.7-2.5c0-1,0.9-1.7,2.4-1.7
				c0.8,0,1.6,0.2,2.1,0.5l-0.4,0.8c-0.5-0.3-1.1-0.5-1.7-0.5c-0.9,0-1.4,0.3-1.4,0.8c0,1.4,3.7,0.3,3.7,2.5c0,1.1-1,1.7-2.5,1.7
				C236.3,345.4,235.4,345.1,234.9,344.7z"/>
			<path class="st5" d="M244.4,345c-0.3,0.3-0.8,0.4-1.3,0.4c-1.2,0-1.8-0.6-1.8-1.8v-3.2h-1v-0.9h1v-1.3h1.1v1.3h1.7v0.9h-1.7v3.1
				c0,0.6,0.3,1,0.9,1c0.3,0,0.6-0.1,0.8-0.3L244.4,345z"/>
			<path class="st5" d="M250.7,342.8H246c0.1,1,1,1.7,2.1,1.7c0.7,0,1.2-0.2,1.7-0.7l0.6,0.7c-0.5,0.6-1.3,0.9-2.3,0.9
				c-1.9,0-3.1-1.2-3.1-3c0-1.7,1.2-3,2.9-3c1.7,0,2.9,1.2,2.9,3C250.7,342.5,250.7,342.7,250.7,342.8z M246,342h3.7
				c-0.1-1-0.8-1.7-1.9-1.7C246.8,340.3,246.1,341,246,342z"/>
			<path class="st5" d="M255.3,339.5v1c-0.1,0-0.2,0-0.2,0c-1.1,0-1.8,0.7-1.8,2v2.9h-1.1v-5.8h1v1
				C253.5,339.8,254.3,339.5,255.3,339.5z"/>
		</g>
		<g class="st13">
			<path class="st14" d="M209.6,177.6l0.4-0.9c0.6,0.6,1.7,1,2.8,1c1.5,0,2.1-0.6,2.1-1.3c0-2.1-5.1-0.8-5.1-3.9
				c0-1.3,1-2.4,3.2-2.4c1,0,2,0.3,2.7,0.7l-0.4,1c-0.7-0.5-1.6-0.7-2.3-0.7c-1.4,0-2,0.6-2,1.3c0,2.1,5.1,0.8,5.1,3.9
				c0,1.3-1,2.4-3.3,2.4C211.5,178.7,210.3,178.2,209.6,177.6z"/>
			<path class="st14" d="M217.4,170.2c0-0.4,0.3-0.8,0.8-0.8c0.4,0,0.8,0.3,0.8,0.7c0,0.4-0.3,0.8-0.8,0.8
				C217.8,171,217.4,170.7,217.4,170.2z M217.6,172.2h1.2v6.4h-1.2V172.2z"/>
			<path class="st14" d="M227.1,172.2v5.5c0,2.2-1.1,3.3-3.3,3.3c-1.2,0-2.3-0.3-3-0.9l0.6-0.9c0.6,0.5,1.5,0.8,2.4,0.8
				c1.5,0,2.2-0.7,2.2-2.1v-0.5c-0.6,0.7-1.4,1-2.3,1c-1.8,0-3.2-1.2-3.2-3.1c0-1.8,1.4-3.1,3.2-3.1c0.9,0,1.8,0.3,2.4,1v-1H227.1z
				 M225.9,175.2c0-1.2-0.9-2.1-2.2-2.1c-1.3,0-2.2,0.8-2.2,2.1c0,1.2,0.9,2.1,2.2,2.1C225,177.3,225.9,176.4,225.9,175.2z"/>
			<path class="st14" d="M235.3,174.9v3.7h-1.2V175c0-1.2-0.6-1.9-1.7-1.9c-1.2,0-2,0.7-2,2.1v3.3h-1.2v-6.4h1.1v1
				c0.5-0.6,1.3-1,2.3-1C234.2,172.2,235.3,173,235.3,174.9z"/>
			<path class="st14" d="M246.6,172.2v6.4h-1.1v-1c-0.5,0.7-1.3,1-2.2,1c-1.6,0-2.7-0.9-2.7-2.8v-3.7h1.2v3.5c0,1.2,0.6,1.9,1.7,1.9
				c1.2,0,2-0.7,2-2.1v-3.3H246.6z"/>
			<path class="st14" d="M255.4,175.4c0,2-1.4,3.3-3.2,3.3c-0.9,0-1.7-0.3-2.2-1v3.3h-1.2v-8.7h1.1v1c0.5-0.7,1.3-1.1,2.3-1.1
				C254,172.2,255.4,173.4,255.4,175.4z M254.2,175.4c0-1.3-0.9-2.2-2.1-2.2c-1.2,0-2.1,0.9-2.1,2.2c0,1.4,0.9,2.2,2.1,2.2
				C253.3,177.6,254.2,176.7,254.2,175.4z"/>
		</g>
		<g>
			<rect x="167.1" y="225.5" class="st5" width="130.8" height="22.4"/>
		</g>
		<g>
			<rect x="167.1" y="194.9" class="st5" width="130.8" height="22.4"/>
		</g>
	</g>
</g>
<g id="Plant">
	<g>
		<g>
			<path class="st15" d="M136.4,345.5c0,0-6.6-5.5-12.3,0c-5.7,5.5-6.8,39.7-6.8,39.7"/>
			<path class="st15" d="M116.9,391.9c0,0,3.9-40.1-10.8-57"/>
			<path class="st15" d="M118.3,387.6c0,0-3-45.7,8-55.8"/>
			<path class="st15" d="M116.9,387.6c0,0-0.3-30.2-8.4-34.9c-8.2-4.7-12.4,10.6-12.4,10.6"/>
			<path class="st15" d="M120.1,387.6c0,0-1.3-23.2,5-31.5c6.3-8.3,13,3.5,13,3.5"/>
			<path class="st15" d="M117.9,390.7c0,0,4.1-54.2-2.7-63.4"/>
		</g>
		<g>
			<path class="st8" d="M101.4,357.2c0,0,4.1,1.5,2.9,5.1c-1.2,3.6-14.1,9.4-14.1,9.4s-5.4-5-0.4-13
				C94.7,350.5,101.3,354.6,101.4,357.2z"/>
			<path class="st16" d="M101.4,357.2c0,0,4.1,1.5,2.9,5.1c-1.2,3.6-14.1,9.4-14.1,9.4s-5.4-5-0.4-13
				C94.7,350.5,101.3,354.6,101.4,357.2z"/>
		</g>
		<g>
			<path class="st8" d="M119.2,350.4c0,0-4.3-0.2-4.6,3.6c-0.2,3.7,9.4,14.1,9.4,14.1s6.9-2.5,5.4-11.8
				C128,346.9,120.3,348.1,119.2,350.4z"/>
			<path class="st16" d="M119.2,350.4c0,0-4.3-0.2-4.6,3.6c-0.2,3.7,9.4,14.1,9.4,14.1s6.9-2.5,5.4-11.8
				C128,346.9,120.3,348.1,119.2,350.4z"/>
		</g>
		<g>
			<path class="st8" d="M122.9,332.5c0,0-2.9-0.3-2.7-2.1c0.2-1.8,11.3-6.3,17.8,1c0,0-4.2,7.2-10.2,7.3
				C121.8,338.8,122.9,332.5,122.9,332.5z"/>
			<path class="st16" d="M122.9,332.5c0,0-2.9-0.3-2.7-2.1c0.2-1.8,11.3-6.3,17.8,1c0,0-4.2,7.2-10.2,7.3
				C121.8,338.8,122.9,332.5,122.9,332.5z"/>
		</g>
		<g>
			<path class="st8" d="M117.5,328.2c0,0,2.6,1.3,3.4-0.4c0.7-1.6-6.2-11.3-15.6-8.5c0,0-0.2,8.3,4.8,11.5
				C115.1,334.1,117.5,328.2,117.5,328.2z"/>
			<path class="st16" d="M117.5,328.2c0,0,2.6,1.3,3.4-0.4c0.7-1.6-6.2-11.3-15.6-8.5c0,0-0.2,8.3,4.8,11.5
				C115.1,334.1,117.5,328.2,117.5,328.2z"/>
		</g>
		<g>
			<path class="st8" d="M131.2,355.7c0,0-2-1.6,0.2-2.4c2.2-0.8,12.8-0.6,12.9,9.9c0,0-12.3,2.1-13.9-1.9
				C128.8,357.3,131.2,355.7,131.2,355.7z"/>
			<path class="st16" d="M131.2,355.7c0,0-2-1.6,0.2-2.4c2.2-0.8,12.8-0.6,12.9,9.9c0,0-12.3,2.1-13.9-1.9
				C128.8,357.3,131.2,355.7,131.2,355.7z"/>
		</g>
		<g>
			<path class="st8" d="M106,332.2c0,0,2-1.6-0.2-2.4c-2.2-0.8-12.8-0.6-12.9,9.9c0,0,12.3,2.1,13.9-1.9
				C108.4,333.8,106,332.2,106,332.2z"/>
			<path class="st16" d="M106,332.2c0,0,2-1.6-0.2-2.4c-2.2-0.8-12.8-0.6-12.9,9.9c0,0,12.3,2.1,13.9-1.9
				C108.4,333.8,106,332.2,106,332.2z"/>
		</g>
		<g>
			<path class="st8" d="M112.6,340.6c0,0,0.2-2-1.4-1.2c-1.6,0.8-7.1,6.7-1.4,12.4c0,0,7.7-5.7,6.3-8.7
				C114.7,340.2,112.6,340.6,112.6,340.6z"/>
			<path class="st16" d="M112.6,340.6c0,0,0.2-2-1.4-1.2c-1.6,0.8-7.1,6.7-1.4,12.4c0,0,7.7-5.7,6.3-8.7
				C114.7,340.2,112.6,340.6,112.6,340.6z"/>
		</g>
		<g>
			<path class="st8" d="M133,343.4c0,0-1.2-1.6,0.6-1.8c1.8-0.2,9.6,1.9,7.8,9.7c0,0-9.6-0.7-10-4C130.9,344.2,133,343.4,133,343.4z
				"/>
			<path class="st16" d="M133,343.4c0,0-1.2-1.6,0.6-1.8c1.8-0.2,9.6,1.9,7.8,9.7c0,0-9.6-0.7-10-4C130.9,344.2,133,343.4,133,343.4
				z"/>
		</g>
		<polygon class="st14" points="102.2,416.7 133.1,416.7 137.2,386.7 98.1,386.7 		"/>
		<polygon class="st17" points="102.2,416.7 133.1,416.7 137.2,386.7 98.1,386.7 		"/>
		<path class="st14" d="M141.1,384.2v2.9c0,1.9-1.5,3.5-3.5,3.5H97.2c-1.9,0-3.5-1.5-3.5-3.5v-2.9H141.1z"/>
	</g>
</g>
<g id="Speech_bubble">
	<g>
		<g>
			<path class="st8" d="M398.6,99.3h-28.7c-4.9,0-8.8,4-8.8,8.8v25c0,4.9,4,8.8,8.8,8.8h8.4l-2,7.9l8-7.9h14.4c4.9,0,8.8-4,8.8-8.8
				v-25C407.5,103.3,403.5,99.3,398.6,99.3z"/>
			<path class="st18" d="M398.6,99.3h-28.7c-4.9,0-8.8,4-8.8,8.8v25c0,4.9,4,8.8,8.8,8.8h8.4l-2,7.9l8-7.9h14.4c4.9,0,8.8-4,8.8-8.8
				v-25C407.5,103.3,403.5,99.3,398.6,99.3z"/>
		</g>
		<g>
			<g class="st19">
				
					<ellipse transform="matrix(0.7071 -0.7071 0.7071 0.7071 27.3078 307.0175)" class="st8" cx="384.3" cy="120.5" rx="14.3" ry="14.3"/>
			</g>
			<g>
				<path class="st5" d="M382.8,126.9c-0.4,0-0.8-0.2-1-0.5l-5.6-6.6c-0.5-0.6-0.4-1.4,0.2-1.8c0.6-0.5,1.4-0.4,1.8,0.2l4.6,5.4
					l7.6-8.9c0.5-0.6,1.3-0.6,1.8-0.2c0.6,0.5,0.6,1.3,0.2,1.8l-8.6,10.1C383.5,126.7,383.1,126.9,382.8,126.9z"/>
			</g>
		</g>
	</g>
</g>
<g id="Character">
	<g>
		<g>
			<path class="st8" d="M393.6,253.6c0,0-17.4-2.2-43.8,5c0,0-4.2-47.1-3.7-53.6s40.7-4.6,40.7-4.6s1,18.9,3.6,30.2
				C393,242,395,251.4,393.6,253.6z"/>
			<path class="st11" d="M393.6,253.6c0,0-17.4-2.2-43.8,5c0,0-4.2-47.1-3.7-53.6s40.7-4.6,40.7-4.6s1,18.9,3.6,30.2
				C393,242,395,251.4,393.6,253.6z"/>
		</g>
		<polygon class="st20" points="337.1,409.6 344.2,411.6 345.9,400.6 346.8,394.7 339.7,392.7 338.5,400.6 		"/>
		<polygon class="st20" points="377.9,410.2 385.3,411.2 385.3,400.6 385.4,394 378.1,393 378,400.6 		"/>
		<polygon class="st11" points="378.1,393 378,400.6 385.3,400.6 385.4,394 		"/>
		<polygon class="st11" points="338.5,400.6 345.9,400.6 346.8,394.7 339.7,392.7 		"/>
		<g>
			<path class="st20" d="M305.6,208.8l-7-2.1l1.3,8c0,0,6.4,1.5,7-1.9L305.6,208.8z"/>
			<polygon class="st20" points="291.5,208.6 295,215.1 299.8,214.8 298.6,206.7 			"/>
		</g>
		<polygon class="st20" points="315.3,210.9 303.8,208.3 302.7,213.9 313.2,216.5 		"/>
		<path class="st8" d="M350.4,205.8c0,0-0.3,0.3-0.7,0.8c-1.5,1.7-5,5.8-8.7,9.4c-3,2.9-6,5.4-8,5.9c-5.7,1.5-26.3-4.6-26.3-4.6
			l2.1-8.4c0,0,19.2,2.6,20.7,2.6c1.1,0,12.8-16.9,15.6-18.3L350.4,205.8z"/>
		<path class="st11" d="M349.7,206.6c-1.5,1.7-5,5.8-8.7,9.4c0.7-5.9,2.9-11.2,5.7-14.6c0.3-0.4,0.6-0.7,0.9-0.9L349.7,206.6z"/>
		<g>
			<path class="st14" d="M337.2,408.5l8.1-0.2c0.3,0,0.6,0.2,0.6,0.5l1.7,6.5c0.2,0.7-0.3,1.3-1,1.3c-2.9,0-7.1,0-10.8,0.1
				c-4.3,0.1-7-0.1-12,0c-3,0.1-4-2.9-2.7-3.3c5.7-1.4,9.5-1.1,14.4-4.3C336,408.8,336.6,408.5,337.2,408.5z"/>
			<path class="st8" d="M336.5,409.5C336.5,409.6,336.5,409.6,336.5,409.5c-1.2,0.3-3.3,0.6-4.1-0.1c-0.3-0.2-0.4-0.5-0.4-0.8
				c0-0.2,0.1-0.4,0.3-0.5c0.9-0.5,3.9,0.9,4.2,1.1c0.1,0,0.1,0.1,0.1,0.2C336.6,409.5,336.6,409.5,336.5,409.5z M332.5,408.4
				C332.5,408.4,332.5,408.5,332.5,408.4c-0.1,0.1-0.2,0.1-0.2,0.2c0,0.2,0.1,0.4,0.2,0.6c0.5,0.4,1.7,0.4,3.3,0.1
				C334.7,408.8,333.1,408.2,332.5,408.4z"/>
			<path class="st8" d="M336.5,409.5c0,0-0.1,0-0.1,0c-0.9-0.4-2.7-1.9-2.6-2.8c0-0.2,0.2-0.4,0.6-0.5c0.4,0,0.7,0,1,0.3
				c1,0.7,1.2,2.7,1.2,2.8C336.6,409.4,336.6,409.5,336.5,409.5C336.6,409.5,336.5,409.5,336.5,409.5z M334.3,406.7
				c-0.1,0.1-0.2,0.1-0.2,0.2c-0.1,0.5,1.2,1.7,2.1,2.2c-0.1-0.6-0.4-1.8-1.1-2.2c-0.2-0.2-0.5-0.2-0.7-0.2
				C334.4,406.6,334.3,406.7,334.3,406.7z"/>
		</g>
		<g>
			<path class="st14" d="M378.2,408.5l8.1-0.2c0.3,0,0.6,0.2,0.6,0.5l1.7,6.5c0.2,0.7-0.3,1.3-1,1.3c-2.9,0-7.1,0-10.8,0.1
				c-4.3,0.1-7-0.1-12,0c-3,0.1-4-2.9-2.7-3.3c5.7-1.4,9.5-1.1,14.4-4.3C377,408.8,377.6,408.5,378.2,408.5z"/>
			<path class="st8" d="M377.6,409.5C377.5,409.6,377.5,409.6,377.6,409.5c-1.2,0.3-3.3,0.6-4.1-0.1c-0.3-0.2-0.4-0.5-0.4-0.8
				c0-0.2,0.1-0.4,0.3-0.5c0.9-0.5,3.9,0.9,4.2,1.1c0.1,0,0.1,0.1,0.1,0.2C377.7,409.5,377.6,409.5,377.6,409.5z M373.6,408.4
				C373.5,408.4,373.5,408.5,373.6,408.4c-0.1,0.1-0.2,0.1-0.2,0.2c0,0.2,0.1,0.4,0.2,0.6c0.5,0.4,1.7,0.4,3.3,0.1
				C375.7,408.8,374.1,408.2,373.6,408.4z"/>
			<path class="st8" d="M377.6,409.5c0,0-0.1,0-0.1,0c-0.9-0.4-2.7-1.9-2.6-2.8c0-0.2,0.2-0.4,0.6-0.5c0.4,0,0.7,0,1,0.3
				c1,0.7,1.2,2.7,1.2,2.8C377.7,409.4,377.6,409.5,377.6,409.5C377.6,409.5,377.6,409.5,377.6,409.5z M375.3,406.7
				c-0.1,0.1-0.2,0.1-0.2,0.2c-0.1,0.5,1.2,1.7,2.1,2.2c-0.1-0.6-0.4-1.8-1.1-2.2c-0.2-0.2-0.5-0.2-0.7-0.2
				C375.4,406.6,375.3,406.7,375.3,406.7z"/>
		</g>
		<path class="st14" d="M393,249.3c3.9,16.8-2.8,149.1-2.8,149.1h-12.9l-5.5-110.2l-20.3,110.2l-13.7-1
			c9-85.4,16.9-136.4,16.9-136.4l0-6.4L393,249.3z"/>
		<path class="st21" d="M337.9,397.3l13.8,1l15.9-86.8l4.3-23.5l5.5,110.2h12.9c0,0,6.7-132.3,2.8-149.1l-38.2,5.3l0,6.4
			C354.8,261,346.9,311.9,337.9,397.3z"/>
		<g>
			<path class="st14" d="M386.1,187c-0.5,8.2-0.1,16.5,0.6,24.1c0.5,5.6,1.3,10.9,2.1,15.7c1.8,11.2,3.9,19.6,4.2,22.5
				c-5.6,0.8-26.7,3.7-38.2,5.3c-13.9-39-8.7-61.7-8.7-61.7s4-1.7,8.8-3c0.6-0.2,1.3-0.3,1.9-0.5c4.2-1,11.3-1.8,16.3-2.2
				c1-0.1,2.1-0.2,3.1-0.2C381.4,186.7,386.1,187,386.1,187z"/>
		</g>
		<g>
			<path class="st20" d="M365.7,169.4c0.3,5.4,0.8,15.4,5.3,17.9c0,0-2.8,5.3-8.8,5.8c-4.5,0.4-4.2-4.1-4.2-4.1c2.6-2,2-5.3,0-9
				L365.7,169.4z"/>
			<path class="st11" d="M362.5,173.8l-4.6,6.3c0.5,0.9,0.9,1.8,1.2,2.7c2.1-0.8,4.5-4,4.2-6.3C363.2,175.4,362.8,174.3,362.5,173.8
				z"/>
		</g>
		<g>
			<path class="st14" d="M346.2,158.7c-0.9,2.8-0.4,8.5,3.5,6.6S347.7,153.9,346.2,158.7z"/>
			<path class="st20" d="M366.2,162.4c0.4,7.1,1,11.3-2.1,15.3c-4.7,6.1-13.9,3.8-16.4-3.1c-2.3-6.2-2.6-16.8,4-20.4
				C358.1,150.7,365.7,155.3,366.2,162.4z"/>
			<path class="st14" d="M361.2,158.6v-8c0,0,8.5-0.6,8.1,3.7c4.7,2.3,2.5,9.6-3.8,13.2c-3.5-2.8-3.1-9.4-3.1-9.4
				C362,158.3,361.6,158.4,361.2,158.6z"/>
			<path class="st20" d="M369.6,168c-0.3,1.9-1.5,3.4-2.9,4.3c-2,1.3-3.7-0.3-3.8-2.6c-0.1-2,0.9-5.2,3.2-5.6
				C368.4,163.8,370,165.8,369.6,168z"/>
			<path class="st14" d="M355.6,165.6c0.1,0.6-0.2,1.1-0.6,1.1c-0.4,0-0.7-0.4-0.8-1c-0.1-0.6,0.2-1.1,0.6-1.1
				C355.2,164.6,355.6,165,355.6,165.6z"/>
			<path class="st14" d="M349.1,166.3c0.1,0.6-0.2,1.1-0.6,1.1c-0.4,0-0.7-0.4-0.8-1c-0.1-0.6,0.2-1.1,0.6-1.1
				C348.7,165.3,349,165.8,349.1,166.3z"/>
			<path class="st22" d="M351.2,166.4c0,0-1,3.4-2.2,5.1c1.1,0.8,2.8,0.2,2.8,0.2L351.2,166.4z"/>
			<path class="st14" d="M355.1,173.5c-0.2,0.1-0.5,0.1-0.7,0.1c-0.1,0-0.2-0.1-0.2-0.2c0-0.1,0.1-0.2,0.1-0.2
				c2.5-0.3,3.5-2.2,3.5-2.2c0-0.1,0.1-0.1,0.2-0.1c0.1,0,0.1,0.1,0.1,0.2C358.1,171.3,357.3,173,355.1,173.5z"/>
			<path class="st14" d="M357.4,163.3c-0.1,0-0.2,0-0.3-0.1c-1.1-1.1-2.3-0.9-2.3-0.9c-0.2,0-0.4-0.1-0.4-0.3c0-0.2,0.1-0.4,0.3-0.4
				c0.1,0,1.6-0.3,2.9,1.1c0.1,0.1,0.1,0.4,0,0.5C357.5,163.2,357.4,163.3,357.4,163.3z"/>
			<path class="st14" d="M346,164.4c-0.1,0-0.1,0-0.2,0c-0.2-0.1-0.3-0.3-0.2-0.4c0.6-1.8,2.1-2.2,2.2-2.2c0.2,0,0.4,0.1,0.4,0.3
				c0,0.2-0.1,0.4-0.2,0.4c-0.1,0-1.2,0.3-1.7,1.7C346.2,164.3,346.1,164.4,346,164.4z"/>
			<path class="st14" d="M364.9,161.5c0,0-5-1.8-7.3-4.7c0,0-4.5,1.2-5.5,3c0,0-1.6-1.3-0.4-3c0,0-3.4,0.7-4.1,3c0,0-1.7-0.6-1.6-3
				c0,0-1.5,0.6-2,3c0,0-3.8-7.8,8.6-10.1c0,0-1-0.4-2.9-0.5c0,0,8.6-3.5,15.5-0.3C372.2,152.2,371,158.3,364.9,161.5z"/>
		</g>
		<g>
			<path class="st8" d="M396,256l-12,1.6c0,0-4.9-34.6-7.1-45.8V188l6.3-1.7l4.8,1.7c1.2,3.9,2.2,9,3.1,14.6
				c0.6,3.7,1.1,7.7,1.6,11.8c0.6,5.5,1.2,11.1,1.6,16.4c0.7,8.5,1.2,16,1.5,20.6C395.9,254.3,396,256,396,256z"/>
			<path class="st8" d="M376.9,211.8c0,0,1-16.8,6.3-25.5c0,0-0.1-2.5-1.2-2.9c-1.1-0.4-5.1,2-5.1,2s-2.5-1.7-3.1-0.9
				S371.9,190.6,376.9,211.8z"/>
			<path class="st18" d="M376.9,211.8c0,0,1-16.8,6.3-25.5c0,0-0.1-2.5-1.2-2.9c-1.1-0.4-5.1,2-5.1,2s-2.5-1.7-3.1-0.9
				S371.9,190.6,376.9,211.8z"/>
		</g>
		<g>
			<path class="st8" d="M349.6,260.6l1.4,1c0,0-2-11.2-1.2-39.4c0-1.4,0.1-2.7,0.1-3.9c1-23.9,4.7-28.2,5-28.5l-3.5,1.2l-6.3,2.2
				C343.3,213.6,349.6,260.6,349.6,260.6z"/>
			<path class="st8" d="M350.1,214.2c0,0-3.5-16.4-2.4-22c1-5.6,4.7-3.1,4.7-3.1s3.4-2.7,4.4,0.3
				C356.8,189.4,352.2,192.7,350.1,214.2z"/>
			<path class="st18" d="M350.1,214.2c0,0-3.5-16.4-2.4-22c1-5.6,4.7-3.1,4.7-3.1s3.4-2.7,4.4,0.3
				C356.8,189.4,352.2,192.7,350.1,214.2z"/>
		</g>
		<path class="st11" d="M392.6,214.4c-5.1-2.9-5.8-10.4-5.8-10.4c0.3-0.1,2.2-0.8,4.2-1.4C391.6,206.3,392.2,210.3,392.6,214.4z"/>
		<path class="st11" d="M367.6,311.6l4.3-23.5l-0.8-12.4C371.1,275.7,365.2,297.2,367.6,311.6z"/>
		<path class="st11" d="M395.8,251.3c-3.2-0.2-6-0.4-6-0.4l-0.6-13.1c0,0,1-0.9,3.4-0.6c0,0,1.1-2.6,1.8-6.4
			C395,239.2,395.5,246.8,395.8,251.3z"/>
		<g>
			<polygon class="st20" points="396.9,230.7 390.6,240.8 395.5,243.7 401.4,234.6 			"/>
			<path class="st8" d="M387.7,187.8c4.2,0.5,22.2,25.1,22.9,32.5c0.8,7.4-10.5,20.2-10.5,20.2l-7.6-4.5c0,0,7.7-11.8,8.1-15
				s-14-16.1-14-16.1s-1.6-3.8-1.8-9.3C384.6,190.4,387.7,187.8,387.7,187.8z"/>
			<path class="st8" d="M389.1,237.8c0,0,6.5,1.4,9,5.4c0,0-2.7,8.4-4.6,9.4c-1.9,0.9-6.7,0.9-6.7,0.9S386.5,244.2,389.1,237.8z"/>
		</g>
	</g>
</g>
</svg>
